<svg version="1.1" id="Layer_1" xmlns="http://www.w3.org/2000/svg" xmlns:xlink="http://www.w3.org/1999/xlink" x="0px" y="0px"
	 width="100%" viewBox="0 0 1254 1254" enable-background="new 0 0 1254 1254" xml:space="preserve">
<path fill="#FEFEFE" opacity="1.000000" stroke="none" 
	d="
M575.000000,1255.000000 
	C383.333344,1255.000000 192.166672,1255.000000 1.000000,1255.000000 
	C1.000000,837.000000 1.000000,419.000000 1.000000,1.000000 
	C419.000000,1.000000 837.000000,1.000000 1255.000000,1.000000 
	C1255.000000,419.000000 1255.000000,837.000000 1255.000000,1255.000000 
	C1028.500000,1255.000000 802.000000,1255.000000 575.000000,1255.000000 
M556.615356,916.847290 
	C570.628845,920.367249 584.585815,924.140930 598.682983,927.285583 
	C604.545593,928.593262 610.671570,928.211731 616.106689,924.857178 
	C622.535522,920.889221 623.792725,914.143005 619.141968,908.206970 
	C617.924683,906.653320 616.402161,905.304810 614.879822,904.029114 
	C592.812317,885.536621 570.437988,867.398499 548.697754,848.529724 
	C510.233307,815.145630 474.833313,778.838257 446.016296,736.590881 
	C425.933350,707.148132 409.062042,676.079834 399.715027,641.385437 
	C393.796112,619.415527 391.518188,597.199158 395.972992,574.690613 
	C400.288757,552.884521 409.941650,534.119751 428.656677,521.096436 
	C450.060455,506.202087 474.000793,502.863495 499.267944,506.410583 
	C528.049805,510.451111 553.160583,523.132507 576.370605,539.936523 
	C585.931335,546.858459 595.029175,554.424805 604.252869,561.803955 
	C606.810120,563.849792 609.836609,565.616028 612.129333,562.919678 
	C613.442749,561.375061 612.530457,557.912781 612.545715,555.313354 
	C612.548462,554.854919 612.200867,554.385986 611.985413,553.936096 
	C601.829956,532.735107 588.358459,513.766602 572.249573,496.775421 
	C540.168091,462.936737 501.276520,441.450928 454.911133,434.728790 
	C409.022980,428.075836 369.325775,440.921509 337.966309,475.551575 
	C308.450928,508.145264 297.478455,547.785339 298.685883,590.863953 
	C300.071533,640.300415 315.248718,686.083374 338.820709,729.175659 
	C360.834412,769.419189 389.468597,804.433655 423.587982,835.095947 
	C462.770782,870.308716 506.667877,897.731567 556.615356,916.847290 
M677.101135,886.623169 
	C669.177734,893.223633 661.182434,899.740540 653.362671,906.461548 
	C649.706604,909.603882 648.018433,913.716980 649.546448,918.561462 
	C651.099121,923.484192 654.719910,926.434387 659.701538,927.019287 
	C664.124817,927.538635 668.713440,927.726990 673.114990,927.166016 
	C691.797607,924.784790 709.368896,918.447876 726.451355,910.871033 
	C793.567932,881.101746 849.288513,836.769165 893.847839,778.503601 
	C926.199890,736.200134 948.215820,689.030273 958.619324,636.674011 
	C966.469055,597.169739 967.099182,557.958496 952.951843,519.464661 
	C940.701477,486.132324 919.747803,460.390320 887.227295,445.216553 
	C847.778015,426.809906 808.134094,430.439026 768.909485,446.068939 
	C727.892822,462.412933 695.880554,490.020477 671.474426,526.527954 
	C665.019409,536.183594 659.516479,546.493164 653.948303,556.705200 
	C653.115784,558.232056 653.648865,562.095154 654.763062,562.722168 
	C656.474731,563.685303 659.294983,563.043030 661.531067,562.557800 
	C662.673523,562.309937 663.512634,560.845703 664.584106,560.061340 
	C679.603699,549.066162 694.050110,537.146301 709.809082,527.335876 
	C733.842468,512.374390 760.263489,503.890167 788.988098,505.268921 
	C814.876892,506.511597 837.034607,516.292664 852.912659,537.312622 
	C869.944275,559.859680 873.178467,586.037720 870.580933,613.311523 
	C867.168579,649.141907 853.800903,681.693481 836.569336,712.740845 
	C816.656189,748.619568 791.133606,780.367737 762.633484,809.763611 
	C736.058289,837.174011 707.192322,862.047974 677.101135,886.623169 
M517.738525,732.792908 
	C522.842163,747.966492 530.403076,761.728760 541.293640,773.548767 
	C560.406250,794.292664 584.288513,804.846802 612.236572,806.839905 
	C613.952515,806.962219 616.587402,808.079712 617.077576,809.381042 
	C622.511475,823.807190 625.743469,838.731567 625.934998,854.209351 
	C626.060852,864.371887 625.947144,874.537537 626.087708,884.699707 
	C626.182678,891.562561 629.625366,895.657166 635.053162,895.767700 
	C641.071411,895.890320 644.734924,891.738708 644.830444,884.427979 
	C644.924072,877.264587 645.084839,870.089050 644.790955,862.936279 
	C644.053955,844.998291 647.841980,827.903259 653.666260,811.095886 
	C654.752747,807.960449 656.126831,806.778198 659.601013,806.653015 
	C675.334961,806.086426 690.111938,801.728394 703.863953,794.108948 
	C745.019409,771.306152 762.619446,723.562317 758.753540,682.628967 
	C758.227722,677.061707 754.776794,674.223145 748.979614,675.576904 
	C737.527466,678.251038 725.619324,680.212036 714.980347,684.913330 
	C669.492310,705.014099 647.769836,741.502319 643.768127,790.194275 
	C642.872864,801.088379 638.788940,811.720337 636.173096,822.472961 
	C634.289673,818.707764 633.404846,815.159241 632.510376,811.613098 
	C630.889526,805.187012 628.887268,798.828186 627.746948,792.318176 
	C626.660950,786.118774 626.840393,779.701965 625.822693,773.485596 
	C622.072754,750.578796 612.561218,730.293701 596.862793,713.150452 
	C577.678406,692.200562 553.560303,680.456970 525.714355,675.862000 
	C514.557983,674.021057 511.920197,675.961487 511.222870,687.292786 
	C510.278992,702.629883 512.922241,717.471863 517.738525,732.792908 
M794.338257,401.190125 
	C809.897400,409.815704 826.278687,411.619720 842.998169,405.711639 
	C881.982056,391.936066 897.440002,343.145111 870.483215,308.224915 
	C849.396851,280.909180 808.364136,277.461945 783.451477,301.299957 
	C753.103882,330.338501 757.930542,377.417419 794.338257,401.190125 
M425.935486,403.618958 
	C436.985779,407.535400 448.287750,409.123749 459.799255,406.285675 
	C501.720367,395.950409 520.674316,351.977844 499.501984,314.416107 
	C477.921661,276.130615 423.564606,273.908447 398.951355,310.176819 
	C376.109619,343.834869 389.214661,387.718170 425.935486,403.618958 
z"/>
<path fill="#3287F7" opacity="1.000000" stroke="none" 
	d="
M556.245728,916.725708 
	C506.667877,897.731567 462.770782,870.308716 423.587982,835.095947 
	C389.468597,804.433655 360.834412,769.419189 338.820709,729.175659 
	C315.248718,686.083374 300.071533,640.300415 298.685883,590.863953 
	C297.478455,547.785339 308.450928,508.145264 337.966309,475.551575 
	C369.325775,440.921509 409.022980,428.075836 454.911133,434.728790 
	C501.276520,441.450928 540.168091,462.936737 572.249573,496.775421 
	C588.358459,513.766602 601.829956,532.735107 611.985413,553.936096 
	C612.200867,554.385986 612.548462,554.854919 612.545715,555.313354 
	C612.530457,557.912781 613.442749,561.375061 612.129333,562.919678 
	C609.836609,565.616028 606.810120,563.849792 604.252869,561.803955 
	C595.029175,554.424805 585.931335,546.858459 576.370605,539.936523 
	C553.160583,523.132507 528.049805,510.451111 499.267944,506.410583 
	C474.000793,502.863495 450.060455,506.202087 428.656677,521.096436 
	C409.941650,534.119751 400.288757,552.884521 395.972992,574.690613 
	C391.518188,597.199158 393.796112,619.415527 399.715027,641.385437 
	C409.062042,676.079834 425.933350,707.148132 446.016296,736.590881 
	C474.833313,778.838257 510.233307,815.145630 548.697754,848.529724 
	C570.437988,867.398499 592.812317,885.536621 614.879822,904.029114 
	C616.402161,905.304810 617.924683,906.653320 619.141968,908.206970 
	C623.792725,914.143005 622.535522,920.889221 616.106689,924.857178 
	C610.671570,928.211731 604.545593,928.593262 598.682983,927.285583 
	C584.585815,924.140930 570.628845,920.367249 556.245728,916.725708 
z"/>
<path fill="#37B27B" opacity="1.000000" stroke="none" 
	d="
M677.368164,886.384949 
	C707.192322,862.047974 736.058289,837.174011 762.633484,809.763611 
	C791.133606,780.367737 816.656189,748.619568 836.569336,712.740845 
	C853.800903,681.693481 867.168579,649.141907 870.580933,613.311523 
	C873.178467,586.037720 869.944275,559.859680 852.912659,537.312622 
	C837.034607,516.292664 814.876892,506.511597 788.988098,505.268921 
	C760.263489,503.890167 733.842468,512.374390 709.809082,527.335876 
	C694.050110,537.146301 679.603699,549.066162 664.584106,560.061340 
	C663.512634,560.845703 662.673523,562.309937 661.531067,562.557800 
	C659.294983,563.043030 656.474731,563.685303 654.763062,562.722168 
	C653.648865,562.095154 653.115784,558.232056 653.948303,556.705200 
	C659.516479,546.493164 665.019409,536.183594 671.474426,526.527954 
	C695.880554,490.020477 727.892822,462.412933 768.909485,446.068939 
	C808.134094,430.439026 847.778015,426.809906 887.227295,445.216553 
	C919.747803,460.390320 940.701477,486.132324 952.951843,519.464661 
	C967.099182,557.958496 966.469055,597.169739 958.619324,636.674011 
	C948.215820,689.030273 926.199890,736.200134 893.847839,778.503601 
	C849.288513,836.769165 793.567932,881.101746 726.451355,910.871033 
	C709.368896,918.447876 691.797607,924.784790 673.114990,927.166016 
	C668.713440,927.726990 664.124817,927.538635 659.701538,927.019287 
	C654.719910,926.434387 651.099121,923.484192 649.546448,918.561462 
	C648.018433,913.716980 649.706604,909.603882 653.362671,906.461548 
	C661.182434,899.740540 669.177734,893.223633 677.368164,886.384949 
z"/>
<path fill="#38B37C" opacity="1.000000" stroke="none" 
	d="
M517.603821,732.419189 
	C512.922241,717.471863 510.278992,702.629883 511.222870,687.292786 
	C511.920197,675.961487 514.557983,674.021057 525.714355,675.862000 
	C553.560303,680.456970 577.678406,692.200562 596.862793,713.150452 
	C612.561218,730.293701 622.072754,750.578796 625.822693,773.485596 
	C626.840393,779.701965 626.660950,786.118774 627.746948,792.318176 
	C628.887268,798.828186 630.889526,805.187012 632.510376,811.613098 
	C633.404846,815.159241 634.289673,818.707764 636.173096,822.472961 
	C638.788940,811.720337 642.872864,801.088379 643.768127,790.194275 
	C647.769836,741.502319 669.492310,705.014099 714.980347,684.913330 
	C725.619324,680.212036 737.527466,678.251038 748.979614,675.576904 
	C754.776794,674.223145 758.227722,677.061707 758.753540,682.628967 
	C762.619446,723.562317 745.019409,771.306152 703.863953,794.108948 
	C690.111938,801.728394 675.334961,806.086426 659.601013,806.653015 
	C656.126831,806.778198 654.752747,807.960449 653.666260,811.095886 
	C647.841980,827.903259 644.053955,844.998291 644.790955,862.936279 
	C645.084839,870.089050 644.924072,877.264587 644.830444,884.427979 
	C644.734924,891.738708 641.071411,895.890320 635.053162,895.767700 
	C629.625366,895.657166 626.182678,891.562561 626.087708,884.699707 
	C625.947144,874.537537 626.060852,864.371887 625.934998,854.209351 
	C625.743469,838.731567 622.511475,823.807190 617.077576,809.381042 
	C616.587402,808.079712 613.952515,806.962219 612.236572,806.839905 
	C584.288513,804.846802 560.406250,794.292664 541.293640,773.548767 
	C530.403076,761.728760 522.842163,747.966492 517.603821,732.419189 
z"/>
<path fill="#38B37C" opacity="1.000000" stroke="none" 
	d="
M794.000610,401.046021 
	C757.930542,377.417419 753.103882,330.338501 783.451477,301.299957 
	C808.364136,277.461945 849.396851,280.909180 870.483215,308.224915 
	C897.440002,343.145111 881.982056,391.936066 842.998169,405.711639 
	C826.278687,411.619720 809.897400,409.815704 794.000610,401.046021 
z"/>
<path fill="#3287F7" opacity="1.000000" stroke="none" 
	d="
M425.580475,403.470367 
	C389.214661,387.718170 376.109619,343.834869 398.951355,310.176819 
	C423.564606,273.908447 477.921661,276.130615 499.501984,314.416107 
	C520.674316,351.977844 501.720367,395.950409 459.799255,406.285675 
	C448.287750,409.123749 436.985779,407.535400 425.580475,403.470367 
z"/>
</svg>